<svg width="210" height="88" xmlns="http://www.w3.org/2000/svg" xmlns:xlink="http://www.w3.org/1999/xlink" xml:space="preserve" overflow="hidden"><g transform="translate(-710 -452)"><g><g><g><g><path d="M43.5507 14.6472C26.7891 14.6472 14.7466 27.4585 14.7466 43.5175 14.7466 59.5764 26.7891 72.3812 43.5507 72.3812 60.3121 72.3812 72.421 59.5101 72.421 43.5175 72.421 27.5249 60.3121 14.6472 43.5507 14.6472ZM43.5507 67.364C30.5139 67.364 21.0893 57.7075 20.1416 45.5389L33.218 45.5389 33.218 61.1539 44.2863 61.1539C54.4466 61.1539 58.6618 57.2435 58.6618 50.185 58.6618 45.4131 55.918 43.0734 52.6968 42.1588 55.6396 40.7935 57.7737 38.507 57.7737 34.2917 57.7472 28.0418 54.3472 25.8613 44.4056 25.8613L33.218 25.8613 33.218 39.8856 20.3139 39.8856C21.931 28.466 31.0972 19.724 43.5507 19.724 57.3097 19.724 67.1055 30.4079 67.1055 43.5175 67.1055 56.6271 57.3097 67.364 43.5507 67.364ZM44.4056 46.0691C49.33 46.0691 50.4501 47.3947 50.4501 50.3905 50.4501 53.3862 49.0781 55.0298 44.5581 55.0298L41.39 55.0298 41.39 46.0691 44.4056 46.0691ZM41.4033 40.1043 41.4033 31.9522 44.2002 31.9522C48.4684 31.9522 49.7343 32.8668 49.7343 35.6106 49.7343 38.7058 48.1105 40.0777 44.1538 40.0777L41.4033 40.1043Z" fill="#FFFFFF" fill-rule="nonzero" fill-opacity="1" transform="matrix(1 0 0 1.00303 711 453)"/><path d="M82.462 28.9167 88.5465 28.9167C93.9613 28.9167 95.8366 30.1097 95.8366 33.5097 95.8838 34.424 95.6413 35.3299 95.1436 36.0984 94.6467 36.8671 93.9192 37.4594 93.0661 37.7912 94.043 38.0091 94.9095 38.5692 95.5082 39.3704 96.1078 40.1715 96.4008 41.1607 96.3335 42.1589 96.3335 46.0029 94.0337 48.1239 88.5061 48.1239L82.4818 48.1239 82.462 28.9167ZM88.4269 36.6579C90.5811 36.6579 91.4686 35.9156 91.4686 34.2255 91.4686 32.7343 90.8059 32.2372 88.4531 32.2372L86.9356 32.2372 86.9356 36.6579 88.4269 36.6579ZM88.6459 44.81C91.1048 44.81 91.8535 43.8489 91.8535 42.2716 91.8535 40.6941 91.2438 39.9187 88.5398 39.9187L86.9095 39.9187 86.9095 44.81 88.6459 44.81Z" fill="#FFFFFF" fill-rule="nonzero" fill-opacity="1" transform="matrix(1 0 0 1.00303 711 453)"/><path d="M99.8198 34.3382 103.392 34.3382 103.637 35.7167C104.857 34.7226 105.964 33.9207 107.123 33.9207 107.549 33.8968 107.972 34.0031 108.337 34.2255L107.839 38.0166C107.494 37.8226 107.101 37.7285 106.706 37.7448 105.811 37.845 104.957 38.1687 104.221 38.686L104.221 48.1304 99.8198 48.1304 99.8198 34.3382Z" fill="#FFFFFF" fill-rule="nonzero" fill-opacity="1" transform="matrix(1 0 0 1.00303 711 453)"/><path d="M115.084 34.3382 115.084 42.9078C115.084 44.4521 115.528 44.8962 116.409 44.8962 117.389 44.8055 118.317 44.409 119.06 43.7628L119.06 34.3382 123.454 34.3382 123.454 48.1304 119.836 48.1304 119.584 46.8049C118.216 47.8216 116.563 48.3827 114.858 48.4088 111.955 48.4088 110.683 47.0237 110.683 43.8424L110.683 34.3382 115.084 34.3382Z" fill="#FFFFFF" fill-rule="nonzero" fill-opacity="1" transform="matrix(1 0 0 1.00303 711 453)"/><path d="M127.716 34.3382 131.308 34.3382 131.56 35.6637C132.928 34.6471 134.581 34.086 136.285 34.0598 139.188 34.0598 140.461 35.4451 140.461 38.6197L140.461 48.1304 136.067 48.1304 136.067 39.5608C136.067 38.0166 135.623 37.6255 134.741 37.6255 133.782 37.7067 132.872 38.0842 132.136 38.7059L132.136 48.1304 127.716 48.1304 127.716 34.3382Z" fill="#FFFFFF" fill-rule="nonzero" fill-opacity="1" transform="matrix(1 0 0 1.00303 711 453)"/><path d="M155.499 47.8521C153.88 48.2452 152.221 48.441 150.555 48.4354 146.214 48.4354 143.928 47.1628 143.928 41.3304 143.928 35.6903 146.525 33.9472 150.476 33.9472 154.425 33.9472 156.142 35.2727 156.142 40.1441 156.142 40.9725 156.062 41.801 156.003 42.6295L148.341 42.6295C148.421 44.7304 149.004 45.0883 151.298 45.0883 152.6 45.0781 153.897 44.9293 155.168 44.6443L155.499 47.8521ZM152.265 39.8989C152.265 37.8243 151.741 37.2477 150.356 37.2477 148.971 37.2477 148.368 37.8243 148.368 39.8989L152.265 39.8989Z" fill="#FFFFFF" fill-rule="nonzero" fill-opacity="1" transform="matrix(1 0 0 1.00303 711 453)"/><path d="M166.422 38.8185C166.422 37.8509 165.951 37.3803 164.434 37.3803 163.118 37.412 161.811 37.5785 160.53 37.8774L160.119 34.6961C161.775 34.2892 163.471 34.0669 165.176 34.0333 169.517 34.0333 170.816 35.2793 170.816 38.5667L170.816 48.1304 167.197 48.1304 166.972 46.9441C165.804 47.8217 164.396 48.3234 162.936 48.3823 160.589 48.3823 158.899 47.0568 158.899 44.2068 158.899 41.3569 160.755 39.5078 165.454 39.5078L166.422 39.5078 166.422 38.8185ZM165.693 42.2716C163.479 42.2716 162.757 42.8482 162.757 43.8755 162.73 44.0464 162.743 44.2211 162.793 44.3865 162.844 44.552 162.931 44.704 163.048 44.8313 163.165 44.9587 163.309 45.0579 163.47 45.1219 163.63 45.1859 163.804 45.213 163.976 45.201 164.778 45.201 165.441 44.8099 166.408 44.1207L166.408 42.2716 165.693 42.2716Z" fill="#FFFFFF" fill-rule="nonzero" fill-opacity="1" transform="matrix(1 0 0 1.00303 711 453)"/><path d="M179.167 34.3382 179.167 42.9078C179.167 44.4521 179.611 44.8962 180.493 44.8962 181.473 44.8055 182.401 44.409 183.144 43.7628L183.144 34.3382 187.565 34.3382 187.565 48.1304 183.919 48.1304 183.674 46.8049C182.301 47.8109 180.649 48.3625 178.948 48.3823 176.045 48.3823 174.78 46.9971 174.78 43.8158L174.78 34.3382 179.167 34.3382Z" fill="#FFFFFF" fill-rule="nonzero" fill-opacity="1" transform="matrix(1 0 0 1.00303 711 453)"/><path d="M85.8358 62.8638C85.2168 62.8762 84.6055 62.7229 84.0659 62.4198 83.5598 62.1356 83.1389 61.7214 82.8464 61.2202 82.543 60.6947 82.3873 60.097 82.3957 59.4904L82.3957 54.3473 84.0328 54.3473 84.0328 59.5368C84.0242 59.8749 84.1066 60.209 84.2712 60.5044 84.4295 60.7699 84.6594 60.9856 84.9339 61.1274 85.2177 61.2765 85.5352 61.3517 85.8552 61.3461 86.1693 61.3524 86.48 61.2771 86.7571 61.1274 87.0147 60.9796 87.2278 60.7642 87.3735 60.5044 87.5352 60.213 87.6152 59.8832 87.605 59.55L87.605 54.3473 89.2421 54.3473 89.2421 59.497C89.2531 60.1002 89.1023 60.6953 88.8051 61.2202 88.5213 61.7219 88.1069 62.1367 87.605 62.4198 87.0669 62.7269 86.4547 62.8805 85.8358 62.8638Z" fill="#FFFFFF" fill-rule="nonzero" fill-opacity="1" transform="matrix(1 0 0 1.00303 711 453)"/><path d="M90.7469 62.7313 90.7469 56.9651 92.3107 56.9651 92.3107 62.7313 90.7469 62.7313ZM94.6173 62.7313 94.6173 59.4174C94.6223 59.2634 94.5971 59.11 94.5406 58.9664 94.4851 58.8228 94.4008 58.6921 94.2922 58.5823 94.1802 58.4777 94.0472 58.3977 93.9023 58.3475 93.7575 58.2973 93.6034 58.278 93.451 58.2907 93.2421 58.2855 93.0366 58.3358 92.8539 58.4366 92.6787 58.5288 92.5356 58.6721 92.4429 58.8474 92.341 59.0319 92.2888 59.2397 92.2905 59.4505L91.6808 59.1258C91.6724 58.715 91.776 58.3096 91.979 57.9527 92.1701 57.6176 92.4497 57.3422 92.7882 57.1574 93.1478 56.9625 93.552 56.8643 93.9613 56.8723 94.3638 56.8647 94.7604 56.9753 95.1006 57.1905 95.4274 57.3937 95.696 57.6765 95.8829 58.0124 96.0724 58.3409 96.1701 58.7137 96.1684 59.0926L96.1684 62.7313 94.6173 62.7313Z" fill="#FFFFFF" fill-rule="nonzero" fill-opacity="1" transform="matrix(1 0 0 1.00303 711 453)"/><path d="M98.3352 56.0372C98.2131 56.0464 98.0901 56.0286 97.9756 55.9851 97.8611 55.9416 97.7575 55.8733 97.6724 55.7854 97.5874 55.6981 97.5208 55.5942 97.4779 55.4802 97.4341 55.3661 97.4147 55.2444 97.4206 55.1225 97.4147 55.0007 97.4341 54.8788 97.4771 54.7647 97.5208 54.6507 97.5874 54.5468 97.6724 54.4598 97.7575 54.3701 97.8602 54.3 97.9747 54.2542 98.0893 54.2083 98.2122 54.188 98.3352 54.1947 98.4581 54.1885 98.5811 54.209 98.6956 54.2547 98.8101 54.3005 98.9137 54.3704 98.9979 54.4598 99.0813 54.548 99.1461 54.6523 99.1882 54.7661 99.2303 54.88 99.2488 55.0013 99.2429 55.1225 99.2488 55.2438 99.2295 55.3648 99.1874 55.4786 99.1453 55.5923 99.0813 55.6967 98.9979 55.7854 98.9128 55.873 98.8093 55.941 98.6947 55.9844 98.5802 56.028 98.4573 56.046 98.3352 56.0372ZM97.5402 62.7312 97.5402 56.9651 99.1242 56.9651 99.1242 62.7312 97.5402 62.7312Z" fill="#FFFFFF" fill-rule="nonzero" fill-opacity="1" transform="matrix(1 0 0 1.00303 711 453)"/><path d="M103.027 62.8505C102.525 62.8579 102.031 62.7222 101.603 62.4595 101.182 62.1937 100.838 61.8238 100.602 61.3858 100.359 60.911 100.232 60.3851 100.232 59.8515 100.232 59.3178 100.359 58.7919 100.602 58.3171 100.838 57.8791 101.182 57.5092 101.603 57.2435 102.031 56.9807 102.525 56.8451 103.027 56.8525 103.416 56.8476 103.8 56.9363 104.148 57.1109 104.468 57.2589 104.744 57.4872 104.95 57.7736 105.154 58.0689 105.268 58.4161 105.281 58.7745L105.281 60.8291C105.268 61.1926 105.156 61.5456 104.957 61.8497 104.759 62.1538 104.484 62.4006 104.161 62.5655 103.811 62.7471 103.422 62.8447 103.027 62.8505ZM103.299 61.4056C103.562 61.413 103.822 61.3467 104.049 61.2143 104.276 61.082 104.462 60.8889 104.585 60.6568 104.709 60.4077 104.771 60.1326 104.765 59.8547 104.771 59.5748 104.709 59.2975 104.585 59.0462 104.464 58.821 104.285 58.6314 104.068 58.4961 103.901 58.3909 103.713 58.3214 103.517 58.2919 103.321 58.2623 103.121 58.2733 102.93 58.3243 102.739 58.3753 102.559 58.4651 102.404 58.5881 102.248 58.7112 102.12 58.8648 102.027 59.0396 101.905 59.2928 101.842 59.5704 101.842 59.8515 101.842 60.1326 101.905 60.4101 102.027 60.6633 102.147 60.8917 102.328 61.0822 102.551 61.2135 102.779 61.3426 103.037 61.4088 103.299 61.4056ZM106.248 62.7312 104.671 62.7312 104.671 61.1803 104.936 59.7752 104.659 58.3768 104.659 54.1085 106.248 54.1085 106.248 62.7312Z" fill="#FFFFFF" fill-rule="nonzero" fill-opacity="1" transform="matrix(1 0 0 1.00303 711 453)"/><path d="M110.397 62.8639C109.848 62.8716 109.307 62.7344 108.827 62.4663 108.36 62.2016 107.974 61.8153 107.709 61.3485 107.443 60.8817 107.31 60.3517 107.323 59.8152 107.314 59.2794 107.453 58.7517 107.727 58.2908 108.002 57.8351 108.391 57.4595 108.856 57.2013 109.321 56.9431 109.846 56.8115 110.378 56.8195 110.931 56.812 111.476 56.9466 111.962 57.2104 112.426 57.4654 112.814 57.8381 113.089 58.2908 113.363 58.7539 113.505 59.2835 113.5 59.8218 113.507 60.3615 113.367 60.8931 113.096 61.3594 112.839 61.819 112.463 62.2012 112.008 62.4663 111.517 62.7407 110.961 62.8781 110.397 62.8639ZM110.397 61.3992C110.673 61.4054 110.944 61.3342 111.18 61.1937 111.402 61.0624 111.583 60.872 111.704 60.6436 111.832 60.3984 111.896 60.1248 111.889 59.8483 111.895 59.5681 111.827 59.2914 111.69 59.0463 111.568 58.8214 111.387 58.6337 111.166 58.5028 110.932 58.3723 110.669 58.3037 110.401 58.3037 110.133 58.3037 109.869 58.3723 109.635 58.5028 109.415 58.6305 109.235 58.8192 109.118 59.0463 108.996 59.2948 108.933 59.5681 108.933 59.845 108.933 60.1219 108.996 60.3951 109.118 60.6436 109.234 60.8732 109.414 61.0643 109.635 61.1937 109.864 61.334 110.13 61.4053 110.397 61.3992Z" fill="#FFFFFF" fill-rule="nonzero" fill-opacity="1" transform="matrix(1 0 0 1.00303 711 453)"/><path d="M116.575 62.8639C116.248 62.8657 115.923 62.8233 115.608 62.7379 115.3 62.6611 115.007 62.5357 114.739 62.3668 114.488 62.212 114.264 62.0172 114.076 61.7902L115.017 60.8491C115.195 61.069 115.422 61.2438 115.68 61.3594 115.953 61.4728 116.246 61.5292 116.541 61.5251 116.743 61.5385 116.943 61.4997 117.125 61.4124 117.186 61.3864 117.238 61.343 117.275 61.2876 117.311 61.2322 117.331 61.1672 117.331 61.1009 117.333 61.0255 117.314 60.951 117.275 60.8863 117.236 60.8216 117.18 60.7696 117.112 60.7364 116.943 60.6387 116.763 60.563 116.575 60.5111L115.872 60.3122C115.63 60.2397 115.397 60.142 115.176 60.0206 114.956 59.8926 114.769 59.7129 114.633 59.497 114.479 59.2392 114.405 58.9417 114.421 58.642 114.411 58.3015 114.506 57.9661 114.692 57.681 114.881 57.3896 115.15 57.1592 115.468 57.0183 115.841 56.8592 116.243 56.7823 116.648 56.7929 117.101 56.7857 117.552 56.8691 117.973 57.0382 118.353 57.1978 118.682 57.4565 118.928 57.787L117.973 58.7746C117.816 58.576 117.613 58.4171 117.384 58.3106 117.165 58.2123 116.927 58.1625 116.687 58.1648 116.503 58.1523 116.317 58.1889 116.151 58.2709 116.097 58.2997 116.051 58.3427 116.02 58.3952 115.988 58.4477 115.971 58.5079 115.971 58.5691 115.971 58.6375 115.988 58.7048 116.024 58.7634 116.059 58.8219 116.109 58.8695 116.171 58.9005 116.343 58.9852 116.523 59.0539 116.707 59.1059L117.41 59.3181C117.642 59.395 117.865 59.4996 118.072 59.6296 118.289 59.7666 118.472 59.9499 118.61 60.1664 118.76 60.428 118.833 60.7267 118.822 61.028 118.83 61.2811 118.779 61.5327 118.674 61.7628 118.568 61.9928 118.409 62.1951 118.212 62.3535 117.742 62.7094 117.163 62.8899 116.575 62.8639Z" fill="#FFFFFF" fill-rule="nonzero" fill-opacity="1" transform="matrix(1 0 0 1.00303 711 453)"/><path d="M122.401 62.7314 122.401 54.1154 123.939 54.1154 123.939 62.7314 122.401 62.7314ZM126.264 62.7314 126.264 59.4175C126.271 59.2633 126.246 59.1095 126.19 58.9656 126.135 58.8218 126.049 58.6913 125.939 58.5824 125.833 58.4738 125.705 58.3887 125.563 58.3327 125.421 58.2768 125.27 58.2512 125.117 58.2577 124.909 58.254 124.704 58.3043 124.521 58.4035 124.348 58.4978 124.205 58.6405 124.11 58.8144 124.01 58.9994 123.96 59.2072 123.965 59.4175L123.355 59.0927C123.346 58.6835 123.443 58.2789 123.64 57.9197 123.827 57.5848 124.105 57.3093 124.442 57.1243 124.799 56.9286 125.201 56.8303 125.608 56.8393 126.013 56.8316 126.412 56.9274 126.768 57.1177 127.097 57.2992 127.368 57.5704 127.55 57.8998 127.748 58.2536 127.849 58.654 127.842 59.0596L127.842 62.7314 126.264 62.7314Z" fill="#FFFFFF" fill-rule="nonzero" fill-opacity="1" transform="matrix(1 0 0 1.00303 711 453)"/><path d="M131.6 62.8506C131.1 62.8568 130.608 62.7212 130.182 62.4596 129.765 62.1947 129.427 61.8243 129.201 61.3859 128.965 60.9087 128.842 60.3838 128.842 59.8516 128.842 59.3195 128.965 58.7944 129.201 58.3173 129.427 57.879 129.765 57.5085 130.182 57.2436 130.61 56.9809 131.104 56.8452 131.607 56.8525 131.988 56.8439 132.366 56.9304 132.707 57.1044 133.021 57.2563 133.292 57.484 133.496 57.7672 133.697 58.0675 133.807 58.4196 133.813 58.7812L133.813 60.869C133.802 61.2267 133.694 61.5747 133.502 61.8764 133.302 62.1628 133.03 62.3913 132.713 62.5391 132.374 62.7332 131.991 62.8403 131.6 62.8506ZM131.891 61.4058C132.089 61.4133 132.286 61.3781 132.469 61.3027 132.653 61.2271 132.817 61.1132 132.952 60.9684 133.226 60.6638 133.371 60.2645 133.356 59.8549 133.359 59.5737 133.293 59.2961 133.164 59.0463 133.047 58.8184 132.871 58.6262 132.653 58.4896 132.424 58.3527 132.159 58.2838 131.891 58.2908 131.624 58.2849 131.36 58.3537 131.129 58.4896 130.914 58.6253 130.739 58.815 130.619 59.0397 130.49 59.2871 130.426 59.563 130.434 59.8417 130.426 60.1225 130.49 60.4005 130.619 60.6503 130.739 60.8831 130.921 61.0776 131.146 61.2112 131.372 61.3448 131.629 61.4123 131.891 61.4058ZM133.263 62.7314 133.263 61.1805 133.522 59.7754 133.263 58.3769 133.263 56.9652 134.835 56.9652 134.835 62.7314 133.263 62.7314Z" fill="#FFFFFF" fill-rule="nonzero" fill-opacity="1" transform="matrix(1 0 0 1.00303 711 453)"/><path d="M139.003 62.8638C138.454 62.8708 137.912 62.7337 137.432 62.4661 136.968 62.2081 136.581 61.8291 136.313 61.3694 136.046 60.9098 135.908 60.3864 135.914 59.8548 135.909 59.3132 136.049 58.78 136.318 58.3106 136.587 57.8577 136.972 57.4848 137.432 57.2302 137.918 56.9664 138.463 56.8317 139.016 56.8392 139.446 56.8326 139.873 56.9161 140.269 57.0844 140.653 57.2463 140.995 57.4933 141.27 57.8068L140.249 58.8341C140.109 58.6588 139.926 58.5219 139.719 58.4365 139.496 58.3469 139.256 58.3018 139.016 58.3039 138.747 58.2994 138.481 58.3682 138.248 58.5027 138.024 58.6312 137.84 58.8194 137.717 59.0462 137.591 59.2935 137.525 59.5672 137.525 59.8449 137.525 60.1225 137.591 60.3962 137.717 60.6435 137.84 60.8721 138.024 61.0624 138.248 61.1936 138.479 61.3331 138.746 61.4042 139.016 61.3991 139.257 61.4035 139.497 61.3561 139.719 61.2599 139.928 61.1676 140.115 61.032 140.269 60.8622L141.27 61.8762C140.995 62.1891 140.656 62.4379 140.275 62.6053 139.875 62.7811 139.441 62.8691 139.003 62.8638Z" fill="#FFFFFF" fill-rule="nonzero" fill-opacity="1" transform="matrix(1 0 0 1.00303 711 453)"/><path d="M143.039 56.0374C142.917 56.0456 142.795 56.0275 142.68 55.984 142.566 55.9405 142.462 55.8728 142.376 55.7855 142.292 55.6977 142.227 55.5935 142.185 55.4796 142.143 55.3656 142.125 55.2441 142.131 55.1227 142.124 55.0013 142.141 54.8796 142.184 54.7655 142.227 54.6514 142.291 54.5473 142.376 54.46 142.461 54.3709 142.565 54.3013 142.679 54.2555 142.793 54.2098 142.916 54.1891 143.039 54.1949 143.162 54.1878 143.286 54.2078 143.4 54.2536 143.515 54.2994 143.618 54.3699 143.702 54.46 143.787 54.5473 143.853 54.6514 143.895 54.7655 143.937 54.8796 143.955 55.0013 143.947 55.1227 143.954 55.2441 143.936 55.3656 143.893 55.4796 143.851 55.5935 143.786 55.6977 143.702 55.7855 143.617 55.8739 143.513 55.9423 143.399 55.9859 143.284 56.0295 143.161 56.047 143.039 56.0374ZM142.237 62.7314 142.237 56.9652 143.821 56.9652 143.821 62.7314 142.237 62.7314Z" fill="#FFFFFF" fill-rule="nonzero" fill-opacity="1" transform="matrix(1 0 0 1.00303 711 453)"/><path d="M147.705 62.8506C147.205 62.8568 146.713 62.7212 146.287 62.4596 145.87 62.1947 145.533 61.8243 145.306 61.3859 145.07 60.9087 144.948 60.3838 144.948 59.8516 144.948 59.3195 145.07 58.7944 145.306 58.3173 145.533 57.879 145.87 57.5085 146.287 57.2436 146.715 56.9809 147.209 56.8452 147.712 56.8525 148.093 56.8439 148.472 56.9304 148.812 57.1044 149.126 57.2563 149.397 57.484 149.601 57.7672 149.802 58.0675 149.912 58.4196 149.919 58.7812L149.919 60.869C149.907 61.2267 149.8 61.5747 149.608 61.8764 149.407 62.1628 149.135 62.3913 148.819 62.5391 148.479 62.7332 148.096 62.8403 147.705 62.8506ZM148.003 61.4058C148.201 61.4133 148.398 61.3781 148.581 61.3027 148.765 61.2271 148.929 61.1132 149.064 60.9684 149.338 60.6638 149.483 60.2645 149.468 59.8549 149.471 59.5737 149.405 59.2961 149.276 59.0463 149.179 58.876 149.049 58.7267 148.894 58.6067 148.739 58.4867 148.563 58.3987 148.373 58.3475 148.184 58.2964 147.987 58.2832 147.792 58.3087 147.598 58.3342 147.411 58.398 147.241 58.4963 147.024 58.63 146.848 58.8201 146.731 59.0463 146.602 59.2937 146.538 59.5696 146.546 59.8483 146.538 60.1291 146.602 60.4072 146.731 60.6568 146.851 60.8834 147.029 61.0734 147.248 61.207 147.477 61.3405 147.738 61.4092 148.003 61.4058ZM149.375 62.7314 149.375 61.1805 149.634 59.7754 149.375 58.3769 149.375 56.9652 150.947 56.9652 150.947 62.7314 149.375 62.7314Z" fill="#FFFFFF" fill-rule="nonzero" fill-opacity="1" transform="matrix(1 0 0 1.00303 711 453)"/><path d="M157.581 62.8639C157.017 62.8732 156.461 62.7386 155.963 62.4728 155.501 62.2095 155.115 61.8282 154.847 61.3678 154.579 60.9074 154.439 60.3843 154.439 59.8516 154.439 59.319 154.579 58.7958 154.847 58.3354 155.115 57.875 155.501 57.4937 155.963 57.2303 156.438 56.9681 156.972 56.8333 157.514 56.8393 158.024 56.8321 158.527 56.9602 158.973 57.2104 159.396 57.451 159.744 57.8073 159.973 58.2377 160.217 58.6964 160.34 59.2096 160.331 59.729 160.331 59.8284 160.331 59.9345 160.331 60.0405 160.331 60.1465 160.331 60.2659 160.271 60.3918L155.413 60.3918 155.413 59.2386 159.542 59.2386 158.879 59.729C158.877 59.4329 158.816 59.1402 158.701 58.8674 158.599 58.6502 158.435 58.468 158.23 58.3438 158.006 58.2179 157.752 58.156 157.494 58.1649 157.208 58.157 156.926 58.228 156.679 58.3703 156.448 58.5047 156.264 58.7057 156.149 58.9469 156.021 59.2253 155.958 59.5288 155.963 59.835 155.956 60.1514 156.024 60.4649 156.163 60.7496 156.286 60.9984 156.483 61.2039 156.726 61.3395 156.992 61.4758 157.288 61.5441 157.587 61.5384 157.861 61.5426 158.133 61.4953 158.389 61.3992 158.63 61.3013 158.842 61.1439 159.005 60.9419L159.94 61.8764C159.654 62.2009 159.298 62.4569 158.899 62.6253 158.481 62.7939 158.032 62.875 157.581 62.8639Z" fill="#FFFFFF" fill-rule="nonzero" fill-opacity="1" transform="matrix(1 0 0 1.00303 711 453)"/><path d="M161.372 62.7314 161.372 54.1154 162.936 54.1154 162.936 62.7314 161.372 62.7314Z" fill="#FFFFFF" fill-rule="nonzero" fill-opacity="1" transform="matrix(1 0 0 1.00303 711 453)"/><path d="M169.59 62.8638C169.027 62.8731 168.47 62.7385 167.973 62.4728 167.273 62.0629 166.764 61.3943 166.555 60.6115 166.345 59.8289 166.452 58.995 166.852 58.2907 167.115 57.8421 167.493 57.4716 167.946 57.217 168.42 56.9548 168.955 56.82 169.497 56.826 170.008 56.8188 170.51 56.9469 170.955 57.1971 171.377 57.4411 171.723 57.7965 171.956 58.2244 172.2 58.6831 172.323 59.1963 172.314 59.7157 172.314 59.8151 172.314 59.9211 172.314 60.0272 172.306 60.1459 172.285 60.2637 172.254 60.3784L167.396 60.3784 167.396 59.2385 171.525 59.2385 170.862 59.7289C170.866 59.4322 170.805 59.1382 170.684 58.8673 170.584 58.6506 170.423 58.4683 170.22 58.3438 169.993 58.2174 169.736 58.1555 169.477 58.1648 169.194 58.1571 168.914 58.2282 168.669 58.3703 168.436 58.5023 168.25 58.7039 168.138 58.9469 168.008 59.2242 167.944 59.5284 167.953 59.8349 167.945 60.1513 168.013 60.4649 168.152 60.7496 168.273 61.0005 168.47 61.2069 168.715 61.3395 168.981 61.4773 169.277 61.5457 169.576 61.5383 169.848 61.5418 170.118 61.4947 170.372 61.3991 170.614 61.2997 170.828 61.1427 170.995 60.9418L171.923 61.8763C171.64 62.2021 171.287 62.4584 170.888 62.6253 170.476 62.7896 170.035 62.8707 169.59 62.8638ZM168.708 56.2361 168.112 55.5005 169.821 53.6513 170.836 54.8642 168.708 56.2361Z" fill="#FFFFFF" fill-rule="nonzero" fill-opacity="1" transform="matrix(1 0 0 1.00303 711 453)"/><path d="M172.632 62.7314 174.984 59.4175 175.88 60.4846 174.402 62.7115 172.632 62.7314ZM176.834 62.7314 175.309 60.4051 174.998 60.1664 172.744 56.9652 174.6 56.9652 175.999 59.0728 176.311 59.2916 178.669 62.7247 176.834 62.7314ZM176.357 60.1465 175.436 59.0927 176.808 56.9719 178.564 56.9719 176.357 60.1465Z" fill="#FFFFFF" fill-rule="nonzero" fill-opacity="1" transform="matrix(1 0 0 1.00303 711 453)"/><path d="M180.353 56.0373C180.237 56.0417 180.12 56.0216 180.012 55.9782 179.903 55.9347 179.805 55.8691 179.724 55.7854 179.637 55.6992 179.57 55.5955 179.527 55.4812 179.483 55.3669 179.464 55.2447 179.472 55.1227 179.464 55.0006 179.482 54.8783 179.526 54.764 179.569 54.6496 179.637 54.5459 179.724 54.4599 179.805 54.3745 179.902 54.3068 180.011 54.2611 180.119 54.2155 180.236 54.1929 180.353 54.1948 180.477 54.1868 180.6 54.2064 180.715 54.2523 180.829 54.2982 180.932 54.3691 181.016 54.4599 181.101 54.5473 181.166 54.6513 181.208 54.7654 181.251 54.8796 181.269 55.0013 181.261 55.1227 181.268 55.244 181.25 55.3655 181.208 55.4795 181.165 55.5935 181.1 55.6976 181.016 55.7854 180.931 55.8743 180.828 55.9429 180.713 55.9865 180.599 56.0301 180.476 56.0474 180.353 56.0373ZM179.551 62.7313 179.551 56.9651 181.142 56.9651 181.142 62.7313 179.551 62.7313Z" fill="#FFFFFF" fill-rule="nonzero" fill-opacity="1" transform="matrix(1 0 0 1.00303 711 453)"/><path d="M182.116 58.3438 182.116 56.9651 186.378 56.9651 186.378 58.3371 182.116 58.3438ZM183.442 62.7313 183.442 54.5725 185.006 54.5725 185.006 62.7313 183.442 62.7313Z" fill="#FFFFFF" fill-rule="nonzero" fill-opacity="1" transform="matrix(1 0 0 1.00303 711 453)"/><path d="M189.911 62.8638C189.361 62.8724 188.819 62.7352 188.339 62.4661 187.882 62.2087 187.502 61.8333 187.24 61.3792 186.964 60.9115 186.822 60.3775 186.829 59.8349 186.822 59.2986 186.964 58.7709 187.24 58.3106 187.509 57.8648 187.887 57.4952 188.339 57.2369 188.819 56.9677 189.361 56.8306 189.911 56.8392 190.461 56.8308 191.005 56.9656 191.488 57.2302 191.944 57.4823 192.328 57.8475 192.601 58.2907 192.876 58.7538 193.018 59.2834 193.012 59.8216 193.016 60.361 192.877 60.8916 192.608 61.3593 192.342 61.8174 191.957 62.1952 191.495 62.4529 191.011 62.7265 190.466 62.8682 189.911 62.8638ZM189.911 61.3991C190.185 61.4053 190.456 61.3341 190.692 61.1936 190.915 61.0623 191.096 60.8718 191.216 60.6435 191.341 60.3972 191.405 60.1244 191.401 59.8482 191.407 59.568 191.339 59.2913 191.203 59.0462 191.079 58.8128 190.892 58.6185 190.664 58.4851 190.435 58.3516 190.174 58.2843 189.911 58.2907 189.643 58.2854 189.379 58.3543 189.149 58.4895 188.926 58.6184 188.745 58.8067 188.625 59.033 188.503 59.2814 188.439 59.5547 188.439 59.8316 188.439 60.1085 188.503 60.3817 188.625 60.6302 188.749 60.8622 188.935 61.0554 189.161 61.1887 189.388 61.3219 189.647 61.3901 189.911 61.3858L189.911 61.3991Z" fill="#FFFFFF" fill-rule="nonzero" fill-opacity="1" transform="matrix(1 0 0 1.00303 711 453)"/></g></g></g></g></g></svg>